<?xml version="1.0" encoding="UTF-8" standalone="no"?>
<!-- Generator: Adobe Illustrator 18.1.1, SVG Export Plug-In . SVG Version: 6.00 Build 0)  -->

<svg
   xmlns:dc="http://purl.org/dc/elements/1.1/"
   xmlns:cc="http://creativecommons.org/ns#"
   xmlns:rdf="http://www.w3.org/1999/02/22-rdf-syntax-ns#"
   xmlns:svg="http://www.w3.org/2000/svg"
   xmlns="http://www.w3.org/2000/svg"
   xmlns:sodipodi="http://sodipodi.sourceforge.net/DTD/sodipodi-0.dtd"
   xmlns:inkscape="http://www.inkscape.org/namespaces/inkscape"
   version="1.1"
   x="0px"
   y="0px"
   viewBox="0 0 1359.153 655.43591"
   enable-background="new 0 0 1616.012 732"
   xml:space="preserve"
   id="svg9328"
   inkscape:version="0.91 r13725"
   sodipodi:docname="oki-portugal_cor.svg"
   inkscape:export-filename="/home/ana/Desktop/logos-dadosabertos/oki-portugal_cor.png"
   inkscape:export-xdpi="24.590164"
   inkscape:export-ydpi="24.590164"
   width="1359.153"
   height="655.43591"><metadata
     id="metadata9460"><rdf:RDF><cc:Work
         rdf:about=""><dc:format>image/svg+xml</dc:format><dc:type
           rdf:resource="http://purl.org/dc/dcmitype/StillImage" /><dc:title></dc:title></cc:Work></rdf:RDF></metadata><defs
     id="defs9458" /><sodipodi:namedview
     pagecolor="#ffffff"
     bordercolor="#666666"
     borderopacity="1"
     objecttolerance="10"
     gridtolerance="10"
     guidetolerance="10"
     inkscape:pageopacity="0"
     inkscape:pageshadow="2"
     inkscape:window-width="1918"
     inkscape:window-height="1059"
     id="namedview9456"
     showgrid="false"
     inkscape:zoom="0.22586466"
     inkscape:cx="1844.0931"
     inkscape:cy="320.815"
     inkscape:window-x="0"
     inkscape:window-y="19"
     inkscape:window-maximized="0"
     inkscape:current-layer="svg9328"
     inkscape:snap-bbox="true"
     fit-margin-top="0"
     fit-margin-left="0"
     fit-margin-right="0"
     fit-margin-bottom="0" /><g
     id="g10106"
     transform="translate(-25.915,-31.379077)"><path
       style="fill:#7ab800"
       inkscape:connector-curvature="0"
       id="path9333"
       d="m 797.322,297.388 c -16.883,0 -28.188,-12.048 -28.188,-27.703 0,-15.655 11.305,-27.666 28.188,-27.666 16.844,0 28.111,12.085 28.111,27.666 10e-4,15.655 -11.267,27.703 -28.111,27.703 z m 0,-44.994 c -9.67,0 -15.322,6.544 -15.322,17.291 0,10.858 5.652,17.291 15.322,17.291 9.594,0 15.246,-6.433 15.246,-17.291 0,-10.747 -5.652,-17.291 -15.246,-17.291 z" /><path
       style="fill:#7ab800"
       inkscape:connector-curvature="0"
       id="path9335"
       d="m 860.322,278.684 0,18.109 -12.568,0 0,-54.18 19.113,0 c 15.246,0 21.791,7.697 21.791,17.7 0,10.821 -6.805,18.37 -21.791,18.37 l -6.545,0 z m 0,-9.483 6.545,0 c 6.545,0 9.223,-3.272 9.223,-8.888 0,-4.945 -2.9,-8.292 -9.223,-8.292 l -6.545,0 0,17.18 z" /><path
       style="fill:#7ab800"
       inkscape:connector-curvature="0"
       id="path9337"
       d="m 946.451,242.613 0,9.668 -22.238,0 0,12.644 17.031,0 0,9.297 -17.031,0 0,12.903 22.238,0 0,9.668 -34.881,0 0,-54.18 34.881,0 z" /><path
       style="fill:#7ab800"
       inkscape:connector-curvature="0"
       id="path9339"
       d="m 983.643,244.547 25.732,32.538 c -0.185,-2.083 -0.297,-4.054 -0.297,-5.802 l 0,-28.67 11.082,0 0,54.18 -6.545,0 c -1.934,0 -3.162,-0.483 -4.389,-2.082 l -25.547,-32.277 c 0.148,1.897 0.262,3.719 0.262,5.317 l 0,29.042 -11.082,0 0,-54.18 6.619,0 c 2.157,0 2.79,0.261 4.165,1.934 z" /><path
       style="fill:#7ab800"
       inkscape:connector-curvature="0"
       id="path9343"
       d="m 784.529,365.041 2.008,0 c 1.859,0 3.199,-0.595 4.016,-1.747 l 12.197,-17.701 c 1.34,-1.934 2.938,-2.491 5.43,-2.491 l 10.932,0 -16.062,21.902 c -1.154,1.6 -2.381,2.566 -3.682,3.272 1.896,0.707 3.42,1.822 4.723,3.867 l 16.361,25.138 -11.23,0 c -2.863,0 -3.904,-0.818 -4.908,-2.306 l -12.271,-18.853 c -0.893,-1.376 -2.119,-1.896 -4.463,-1.896 l -3.049,0 0,23.055 -12.568,0 0,-54.18 12.568,0 0,21.94 z" /><path
       style="fill:#7ab800"
       inkscape:connector-curvature="0"
       id="path9345"
       d="m 855.115,345.035 25.732,32.538 c -0.186,-2.083 -0.297,-4.054 -0.297,-5.802 l 0,-28.67 11.082,0 0,54.18 -6.545,0 c -1.934,0 -3.162,-0.483 -4.389,-2.082 l -25.547,-32.277 c 0.148,1.896 0.262,3.719 0.262,5.317 l 0,29.042 -11.082,0 0,-54.18 6.619,0 c 2.157,10e-4 2.79,0.261 4.165,1.934 z" /><path
       style="fill:#7ab800"
       inkscape:connector-curvature="0"
       id="path9347"
       d="m 943.775,397.876 c -16.883,0 -28.188,-12.048 -28.188,-27.703 0,-15.655 11.305,-27.666 28.188,-27.666 16.846,0 28.113,12.085 28.113,27.666 10e-4,15.655 -11.267,27.703 -28.113,27.703 z m 0,-44.994 c -9.668,0 -15.32,6.544 -15.32,17.291 0,10.858 5.652,17.291 15.32,17.291 9.594,0 15.246,-6.433 15.246,-17.291 0,-10.747 -5.652,-17.291 -15.246,-17.291 z" /><path
       style="fill:#7ab800"
       inkscape:connector-curvature="0"
       id="path9349"
       d="m 985.654,343.102 10.56,0 c 2.193,0 3.719,1.078 4.164,2.715 l 7.438,28.261 c 0.482,1.822 1.041,3.942 1.301,6.21 0.484,-2.343 1.115,-4.388 1.674,-6.21 l 8.775,-28.261 c 0.447,-1.376 2.008,-2.715 4.092,-2.715 l 3.717,0 c 2.195,0 3.607,1.041 4.166,2.715 l 8.701,28.261 c 0.559,1.748 1.189,3.682 1.637,5.913 0.408,-2.194 0.818,-4.165 1.264,-5.913 l 7.438,-28.261 c 0.408,-1.45 2.008,-2.715 4.09,-2.715 l 9.893,0 -16.734,54.18 -11.379,0 -10.189,-33.579 c -0.334,-1.041 -0.742,-2.305 -1.078,-3.681 -0.334,1.376 -0.744,2.64 -1.078,3.681 l -10.338,33.579 -11.379,0 -16.735,-54.18 z" /><path
       style="fill:#7ab800"
       inkscape:connector-curvature="0"
       id="path9351"
       d="m 1099.826,387.241 20.08,0 0,10.04 -32.65,0 0,-54.18 12.57,0 0,44.14 z" /><path
       style="fill:#7ab800"
       inkscape:connector-curvature="0"
       id="path9353"
       d="m 1181.492,343.102 0,9.668 -22.236,0 0,12.644 17.031,0 0,9.297 -17.031,0 0,12.903 22.236,0 0,9.668 -34.881,0 0,-54.18 34.881,0 z" /><path
       style="fill:#7ab800"
       inkscape:connector-curvature="0"
       id="path9355"
       d="m 1228.947,397.281 -21.047,0 0,-54.18 21.047,0 c 16.846,0 28.113,11.49 28.113,27.071 10e-4,15.656 -11.267,27.109 -28.113,27.109 z m 0,-44.511 -8.404,0 0,34.844 8.404,0 c 9.594,0 15.246,-6.619 15.246,-17.44 0,-10.748 -5.652,-17.404 -15.246,-17.404 z" /><path
       style="fill:#7ab800"
       inkscape:connector-curvature="0"
       id="path9357"
       d="m 1313.367,386.572 0,-8.219 -5.355,0 c -1.598,0 -2.527,-0.93 -2.527,-2.23 l 0,-6.917 19.262,0 0,22.869 c -5.541,4.054 -11.898,5.801 -20.75,5.801 -15.84,0 -27.666,-11.825 -27.666,-27.703 0,-16.176 11.156,-27.666 28.633,-27.666 9.074,0 15.805,3.123 20.154,7.288 l -3.643,5.541 c -0.707,1.041 -1.674,1.673 -2.826,1.673 -0.744,0 -1.525,-0.26 -2.307,-0.743 -3.979,-2.38 -6.768,-3.384 -11.824,-3.384 -9.371,0 -15.32,6.916 -15.32,17.291 0,11.453 6.693,18.035 15.766,18.035 3.458,0 6.024,-0.632 8.403,-1.636 z" /><path
       style="fill:#7ab800"
       inkscape:connector-curvature="0"
       id="path9359"
       d="m 1385.068,343.102 0,9.668 -22.236,0 0,12.644 17.031,0 0,9.297 -17.031,0 0,12.903 22.236,0 0,9.668 -34.881,0 0,-54.18 34.881,0 z" /><path
       style="fill:#7ab800"
       inkscape:connector-curvature="0"
       id="path9363"
       d="m 781.891,477.832 0,19.934 -7.178,0 0,-53.294 15.732,0 c 3.371,0 6.303,0.391 8.795,1.172 2.492,0.781 4.557,1.891 6.191,3.328 1.637,1.438 2.857,3.175 3.664,5.207 0.805,2.033 1.209,4.302 1.209,6.806 0,2.479 -0.434,4.748 -1.303,6.806 -0.867,2.059 -2.137,3.831 -3.811,5.318 -1.674,1.487 -3.752,2.647 -6.23,3.478 -2.479,0.831 -5.318,1.246 -8.516,1.246 l -8.553,0 z m 0,-5.728 8.555,0 c 2.057,0 3.873,-0.272 5.447,-0.818 1.574,-0.545 2.895,-1.308 3.961,-2.287 1.066,-0.979 1.873,-2.15 2.418,-3.515 0.545,-1.363 0.818,-2.863 0.818,-4.5 0,-3.396 -1.049,-6.049 -3.143,-7.958 -2.096,-1.909 -5.264,-2.864 -9.502,-2.864 l -8.555,0 0,21.942 z" /><path
       style="fill:#7ab800"
       inkscape:connector-curvature="0"
       id="path9365"
       d="m 891.229,471.138 c 0,3.992 -0.631,7.655 -1.896,10.989 -1.264,3.335 -3.049,6.205 -5.355,8.609 -2.305,2.405 -5.076,4.271 -8.311,5.598 -3.236,1.326 -6.812,1.989 -10.73,1.989 -3.918,0 -7.488,-0.663 -10.711,-1.989 -3.223,-1.326 -5.986,-3.192 -8.293,-5.598 -2.305,-2.404 -4.09,-5.274 -5.355,-8.609 -1.264,-3.334 -1.896,-6.997 -1.896,-10.989 0,-3.992 0.633,-7.655 1.896,-10.99 1.266,-3.334 3.051,-6.21 5.355,-8.628 2.307,-2.417 5.07,-4.295 8.293,-5.634 3.223,-1.339 6.793,-2.009 10.711,-2.009 3.918,0 7.494,0.67 10.73,2.009 3.234,1.339 6.006,3.217 8.311,5.634 2.307,2.418 4.092,5.294 5.355,8.628 1.265,3.334 1.896,6.998 1.896,10.99 z m -7.401,0 c 0,-3.272 -0.445,-6.211 -1.338,-8.814 -0.893,-2.603 -2.158,-4.803 -3.793,-6.601 -1.637,-1.798 -3.621,-3.181 -5.951,-4.147 -2.33,-0.966 -4.934,-1.45 -7.811,-1.45 -2.852,0 -5.441,0.483 -7.771,1.45 -2.332,0.967 -4.32,2.35 -5.971,4.147 -1.648,1.798 -2.918,3.997 -3.811,6.601 -0.893,2.604 -1.34,5.542 -1.34,8.814 0,3.272 0.447,6.205 1.34,8.795 0.893,2.592 2.162,4.786 3.811,6.583 1.65,1.798 3.639,3.174 5.971,4.128 2.33,0.955 4.92,1.432 7.771,1.432 2.877,0 5.48,-0.477 7.811,-1.432 2.33,-0.954 4.314,-2.33 5.951,-4.128 1.635,-1.797 2.9,-3.991 3.793,-6.583 0.893,-2.59 1.338,-5.523 1.338,-8.795 z" /><path
       style="fill:#7ab800"
       inkscape:connector-curvature="0"
       id="path9367"
       d="m 931.32,475.526 0,22.239 -7.178,0 0,-53.294 15.062,0 c 3.371,0 6.285,0.342 8.738,1.023 2.455,0.682 4.482,1.668 6.082,2.956 1.598,1.29 2.781,2.846 3.551,4.668 0.768,1.822 1.152,3.861 1.152,6.117 0,1.885 -0.297,3.645 -0.893,5.281 -0.594,1.637 -1.457,3.105 -2.584,4.407 -1.129,1.302 -2.504,2.411 -4.129,3.328 -1.623,0.918 -3.465,1.612 -5.521,2.083 0.893,0.521 1.686,1.277 2.379,2.269 l 15.547,21.161 -6.398,0 c -1.314,0 -2.281,-0.508 -2.9,-1.524 l -13.834,-19.042 c -0.422,-0.595 -0.881,-1.022 -1.377,-1.283 -0.496,-0.26 -1.24,-0.39 -2.23,-0.39 l -5.467,0 z m 0,-5.244 7.549,0 c 2.107,0 3.961,-0.254 5.561,-0.763 1.6,-0.508 2.938,-1.228 4.016,-2.157 1.078,-0.929 1.891,-2.039 2.438,-3.328 0.545,-1.289 0.816,-2.715 0.816,-4.277 0,-3.173 -1.047,-5.565 -3.143,-7.177 -2.094,-1.612 -5.213,-2.418 -9.352,-2.418 l -7.885,0 0,20.12 z" /><path
       style="fill:#7ab800"
       inkscape:connector-curvature="0"
       id="path9369"
       d="m 1029.91,444.472 0,6.062 -17.219,0 0,47.231 -7.215,0 0,-47.231 -17.293,0 0,-6.062 41.727,0 z" /><path
       style="fill:#7ab800"
       inkscape:connector-curvature="0"
       id="path9371"
       d="m 1080.525,492.038 c 2.207,0 4.178,-0.372 5.914,-1.115 1.734,-0.744 3.205,-1.785 4.406,-3.124 1.203,-1.339 2.121,-2.938 2.754,-4.798 0.631,-1.859 0.947,-3.905 0.947,-6.136 l 0,-32.394 7.178,0 0,32.394 c 0,3.074 -0.49,5.926 -1.469,8.554 -0.98,2.628 -2.381,4.903 -4.203,6.824 -1.822,1.922 -4.047,3.428 -6.676,4.519 -2.627,1.091 -5.578,1.636 -8.852,1.636 -3.271,0 -6.223,-0.545 -8.85,-1.636 -2.629,-1.091 -4.861,-2.597 -6.695,-4.519 -1.834,-1.921 -3.242,-4.196 -4.221,-6.824 -0.98,-2.628 -1.469,-5.479 -1.469,-8.554 l 0,-32.394 7.178,0 0,32.355 c 0,2.231 0.316,4.277 0.947,6.137 0.633,1.859 1.551,3.459 2.752,4.798 1.203,1.339 2.678,2.387 4.426,3.143 1.748,0.756 3.726,1.134 5.933,1.134 z" /><path
       style="fill:#7ab800"
       inkscape:connector-curvature="0"
       id="path9373"
       d="m 1160.188,492.521 c 1.438,0 2.758,-0.067 3.961,-0.204 1.201,-0.136 2.336,-0.341 3.402,-0.613 1.066,-0.273 2.07,-0.602 3.012,-0.986 0.943,-0.384 1.885,-0.823 2.828,-1.32 l 0,-11.752 -8.258,0 c -0.471,0 -0.85,-0.136 -1.133,-0.409 -0.285,-0.272 -0.428,-0.606 -0.428,-1.004 l 0,-4.091 16.363,0 0,20.455 c -1.34,0.967 -2.734,1.81 -4.184,2.528 -1.451,0.72 -3,1.32 -4.648,1.804 -1.65,0.483 -3.416,0.843 -5.301,1.079 -1.885,0.235 -3.93,0.353 -6.137,0.353 -3.867,0 -7.412,-0.663 -10.637,-1.989 -3.223,-1.326 -6,-3.186 -8.33,-5.579 -2.33,-2.392 -4.146,-5.262 -5.447,-8.609 -1.303,-3.347 -1.953,-7.028 -1.953,-11.045 0,-4.066 0.639,-7.773 1.916,-11.12 1.275,-3.347 3.098,-6.217 5.467,-8.609 2.367,-2.393 5.23,-4.245 8.59,-5.56 3.36,-1.315 7.123,-1.972 11.287,-1.972 2.107,0 4.066,0.155 5.877,0.465 1.809,0.311 3.488,0.757 5.039,1.339 1.549,0.583 2.98,1.29 4.295,2.12 1.314,0.831 2.541,1.767 3.682,2.808 l -2.045,3.272 c -0.422,0.67 -0.967,1.005 -1.637,1.005 -0.396,0 -0.83,-0.137 -1.301,-0.409 -0.621,-0.348 -1.314,-0.769 -2.084,-1.265 -0.768,-0.496 -1.703,-0.973 -2.807,-1.432 -1.104,-0.459 -2.406,-0.85 -3.906,-1.172 -1.5,-0.322 -3.277,-0.483 -5.336,-0.483 -3,0 -5.715,0.49 -8.145,1.469 -2.43,0.98 -4.5,2.381 -6.211,4.203 -1.711,1.822 -3.025,4.029 -3.941,6.619 -0.918,2.592 -1.377,5.499 -1.377,8.722 0,3.372 0.477,6.378 1.432,9.019 0.955,2.641 2.301,4.878 4.035,6.713 1.736,1.835 3.793,3.235 6.174,4.202 2.381,0.967 5.009,1.448 7.886,1.448 z" /><path
       style="fill:#7ab800"
       inkscape:connector-curvature="0"
       id="path9375"
       d="m 1257.178,497.766 -5.578,0 c -0.645,0 -1.166,-0.161 -1.562,-0.483 -0.396,-0.322 -0.693,-0.731 -0.893,-1.228 l -4.982,-12.867 -23.914,0 -4.982,12.867 c -0.174,0.446 -0.473,0.844 -0.893,1.19 -0.422,0.348 -0.943,0.521 -1.562,0.521 l -5.578,0 21.309,-53.294 7.328,0 21.307,53.294 z m -34.922,-19.786 19.896,0 -8.367,-21.682 c -0.545,-1.339 -1.078,-3.013 -1.6,-5.021 -0.271,1.017 -0.539,1.952 -0.799,2.808 -0.26,0.856 -0.516,1.605 -0.762,2.25 l -8.368,21.645 z" /><path
       style="fill:#7ab800"
       inkscape:connector-curvature="0"
       id="path9377"
       d="m 1293.438,491.704 23.059,0 0,6.062 -30.273,0 0,-53.294 7.215,0 0,47.232 z" /><rect
       x="512.11774"
       y="-321.05756"
       transform="matrix(0.80111464,0.59851093,-0.59851093,0.80111464,0,0)"
       width="21.011616"
       height="173.93982"
       id="rect9379"
       style="fill:#7ab800" /><rect
       x="491.80521"
       y="-138.71921"
       transform="matrix(0.89508621,0.44589313,-0.44589313,0.89508621,0,0)"
       width="21.015324"
       height="83.788292"
       id="rect9381"
       style="fill:#7ab800" /><rect
       x="455.31201"
       y="-99.560608"
       transform="matrix(0.96031858,0.2789054,-0.2789054,0.96031858,0,0)"
       width="21.018593"
       height="131.73245"
       id="rect9383"
       style="fill:#7ab800" /><polygon
       points="390.269,152.372 398.88,69.057 419.792,71.222 411.174,154.535 "
       id="polygon9385"
       style="fill:#7ab800" /><polygon
       points="344.705,60.146 365.658,58.544 372.83,152.122 351.876,153.726 "
       id="polygon9387"
       style="fill:#7ab800" /><polygon
       points="298.078,99.771 318.407,94.448 334.665,156.589 314.347,161.911 "
       id="polygon9389"
       style="fill:#7ab800" /><rect
       x="234.76637"
       y="-199.30852"
       transform="matrix(0.42191621,0.90663483,-0.90663483,0.42191621,0,0)"
       width="43.059345"
       height="21.004192"
       id="rect9391"
       style="fill:#7ab800" /><polygon
       points="236.875,183.734 254.04,171.612 263.771,185.407 246.613,197.528 "
       id="polygon9393"
       style="fill:#7ab800" /><polygon
       points="169.313,175.43 184.031,160.431 233.313,208.81 218.593,223.811 "
       id="polygon9395"
       style="fill:#7ab800" /><polygon
       points="119.461,202.38 131.27,185.002 207.521,237.29 195.712,254.668 "
       id="polygon9397"
       style="fill:#7ab800" /><polygon
       points="130.694,267.831 139.21,248.623 187.231,269.907 178.712,289.113 "
       id="polygon9399"
       style="fill:#7ab800" /><polygon
       points="168.145,326.049 173.089,305.627 30.865,271.172 25.915,291.59 "
       id="polygon9401"
       style="fill:#7ab800" /><rect
       x="78.942818"
       y="333.08481"
       transform="matrix(0.99831073,0.05810062,-0.05810062,0.99831073,0,0)"
       width="106.28886"
       height="21.017775"
       id="rect9403"
       style="fill:#7ab800" /><rect
       x="398.84842"
       y="-117.49752"
       transform="matrix(0.12089576,0.99266521,-0.99266521,0.12089576,0,0)"
       width="21.008736"
       height="103.60963"
       id="rect9405"
       style="fill:#7ab800" /><rect
       x="451.48166"
       y="-38.976261"
       transform="matrix(0.29638978,0.95506707,-0.95506707,0.29638978,0,0)"
       width="21.010725"
       height="24.089832"
       id="rect9407"
       style="fill:#7ab800" /><rect
       x="489.20432"
       y="47.515682"
       transform="matrix(0.46199177,0.88688421,-0.88688421,0.46199177,0,0)"
       width="21.013374"
       height="87.168549"
       id="rect9409"
       style="fill:#7ab800" /><rect
       x="510.90463"
       y="139.47409"
       transform="matrix(0.61299172,0.79008933,-0.79008933,0.61299172,0,0)"
       width="21.010284"
       height="93.977264"
       id="rect9411"
       style="fill:#7ab800" /><rect
       x="515.81995"
       y="233.83885"
       transform="matrix(0.74432258,0.66782026,-0.66782026,0.74432258,0,0)"
       width="21.009363"
       height="91.603226"
       id="rect9413"
       style="fill:#7ab800" /><rect
       x="503.79239"
       y="327.54449"
       transform="matrix(0.85159651,0.52419785,-0.52419785,0.85159651,0,0)"
       width="21.016087"
       height="42.28817"
       id="rect9415"
       style="fill:#7ab800" /><polygon
       points="260.911,638.519 290.855,561.831 310.427,569.477 280.483,646.164 "
       id="polygon9417"
       style="fill:#7ab800" /><rect
       x="431.18378"
       y="501.04581"
       transform="matrix(0.98147408,0.19159494,-0.19159494,0.98147408,0,0)"
       width="21.012554"
       height="75.552994"
       id="rect9419"
       style="fill:#7ab800" /><polygon
       points="364.445,632.745 365.143,580.202 386.153,580.477 385.456,633.026 "
       id="polygon9421"
       style="fill:#7ab800" /><polygon
       points="403.547,579.165 424.273,575.685 441.084,675.896 420.361,679.377 "
       id="polygon9423"
       style="fill:#7ab800" /><rect
       x="687.01361"
       y="-242.47365"
       transform="matrix(0.33890714,0.94081983,-0.94081983,0.33890714,0,0)"
       width="61.384708"
       height="21.006557"
       id="rect9425"
       style="fill:#7ab800" /><polygon
       points="552.953,686.815 571.137,676.273 494.921,546.297 476.742,556.832 "
       id="polygon9427"
       style="fill:#7ab800" /><polygon
       points="509.587,536.705 524.771,522.176 536.39,534.095 521.201,548.626 "
       id="polygon9429"
       style="fill:#7ab800" /><polygon
       points="537.415,510.203 550.737,493.949 603.128,536.875 589.805,553.131 "
       id="polygon9431"
       style="fill:#7ab800" /><polygon
       points="560.56,479.531 570.756,461.161 624.269,490.873 614.066,509.247 "
       id="polygon9433"
       style="fill:#7ab800" /><polygon
       points="577.841,445.219 584.599,425.32 610.44,434.098 603.69,453.999 "
       id="polygon9435"
       style="fill:#7ab800" /><rect
       x="642.48859"
       y="296.15598"
       transform="matrix(0.98907746,0.14739664,-0.14739664,0.98907746,0,0)"
       width="81.87487"
       height="21.011478"
       id="rect9437"
       style="fill:#7ab800" /><polygon
       points="592.188,349.177 644.152,347.535 644.822,368.543 592.856,370.179 "
       id="polygon9439"
       style="fill:#7ab800" /><rect
       x="427.15286"
       y="-573.11682"
       transform="matrix(0.20959738,0.97778778,-0.97778778,0.20959738,0,0)"
       width="21.013264"
       height="65.713821"
       id="rect9441"
       style="fill:#7ab800" /><polygon
       points="572.546,275.221 614,258.147 621.997,277.569 580.549,294.647 "
       id="polygon9443"
       style="fill:#7ab800" /><polygon
       points="553.163,242.053 662.887,171.689 674.232,189.381 564.502,259.746 "
       id="polygon9445"
       style="fill:#7ab800" /><polygon
       points="528.166,212.89 544.743,197.449 559.054,212.824 542.484,228.262 "
       id="polygon9447"
       style="fill:#7ab800" /><path
       style="fill:#ff0000"
       inkscape:connector-curvature="0"
       id="path9452"
       d="m 510.696,370.529 -0.471,-15.395 -46.673,1.427 45.668,-9.732 -3.211,-15.064 -45.691,9.736 43.215,-17.734 -5.848,-14.25 -43.175,17.718 39.321,-25.136 -8.297,-12.979 -39.358,25.159 34.235,-31.78 -10.479,-11.289 -34.231,31.776 28.008,-37.371 -12.326,-9.236 -28.007,37.371 20.887,-41.768 -13.775,-6.889 -20.889,41.772 13.1,-44.829 -14.785,-4.32 -13.101,44.831 4.891,-46.444 -15.318,-1.613 -5.063,48.084 -3.774,-48.202 -15.355,1.203 3.644,46.543 -11.888,-45.143 -14.895,3.922 11.894,45.167 -19.763,-42.318 -13.955,6.518 19.759,42.309 -26.99,-38.106 -12.568,8.902 27.005,38.123 -33.373,-32.689 -10.777,11.004 33.354,32.669 -38.649,-26.196 -8.643,12.75 38.665,26.206 -42.721,-18.884 -6.227,14.088 42.719,18.883 -45.405,-10.954 -3.611,14.973 45.392,10.951 -46.613,-2.676 -0.883,15.377 46.635,2.677 -46.363,5.689 1.875,15.287 46.373,-5.69 -44.612,13.874 4.574,14.707 44.587,-13.866 -41.396,21.601 7.125,13.656 41.397,-21.602 -36.878,28.642 9.447,12.164 36.882,-28.645 -31.178,34.767 11.467,10.283 31.171,-34.76 -24.47,39.766 13.117,8.072 24.482,-39.785 -16.987,43.512 14.348,5.602 16.987,-43.513 -8.95,45.845 15.117,2.951 8.946,-45.825 -0.622,46.688 15.4,0.205 0.623,-46.72 7.724,46.082 15.191,-2.547 -7.718,-46.046 15.809,43.927 14.492,-5.217 -15.815,-43.942 23.403,40.415 13.33,-7.719 -23.396,-40.403 30.231,35.583 11.738,-9.973 -30.24,-35.594 36.101,29.62 9.77,-11.908 -36.125,-29.64 40.836,22.72 7.488,-13.459 -40.798,-22.699 44.192,15.053 4.967,-14.58 -44.215,-15.061 46.195,6.928 2.285,-15.232 -46.21,-6.931 46.699,-1.424 z m -135.43,-6.224 c -1.12,2.912 -2.832,5.408 -5.136,7.488 -2.304,2.08 -5.225,3.704 -8.76,4.872 -3.537,1.168 -7.721,1.752 -12.553,1.752 l -8.447,0 0,23.376 -16.225,0 0,-69.936 24.672,0 c 4.928,0 9.16,0.584 12.696,1.752 3.535,1.168 6.448,2.776 8.736,4.823 2.287,2.049 3.976,4.464 5.063,7.248 1.087,2.784 1.632,5.793 1.632,9.024 10e-4,3.489 -0.558,6.69 -1.678,9.601 z m 60.911,-19.584 -19.68,0 0,57.072 -16.225,0 0,-57.072 -19.68,0 0,-12.863 55.584,0 0,12.863 z" /><path
       style="fill:#ff0000"
       inkscape:connector-curvature="0"
       id="path9454"
       d="m 357.817,346.953 c -0.977,-0.943 -2.208,-1.672 -3.695,-2.185 -1.488,-0.511 -3.257,-0.768 -5.305,-0.768 l -8.447,0 0,22.176 8.447,0 c 4.225,0 7.264,-1.008 9.12,-3.023 1.855,-2.017 2.784,-4.832 2.784,-8.448 0,-1.6 -0.24,-3.056 -0.72,-4.368 -0.48,-1.312 -1.207,-2.44 -2.184,-3.384 z" /></g></svg>